<?xml version="1.0" encoding="UTF-8"?>
<svg xmlns="http://www.w3.org/2000/svg" viewBox="0 0 334.77 93.28">
  <defs>
    <style>
      .cls-1 {
        fill: #fff;
      }

      .cls-2 {
        fill: #b2b2b2;
        mix-blend-mode: multiply;
      }

      .cls-3 {
        isolation: isolate;
      }

      .cls-4 {
        fill: #007cb0;
      }
    </style>
  </defs>
  <g class="cls-3">
    <g id="Lag_2" data-name="Lag 2">
      <g id="Lag_1-2" data-name="Lag 1">
        <g>
          <g>
            <path class="cls-4" d="M93.28,46.64c0,25.76-20.88,46.64-46.64,46.64S0,72.4,0,46.64,20.88,0,46.64,0s46.64,20.88,46.64,46.64Z"/>
            <path class="cls-2" d="M32.19,90.99l21.25-11.65,8.56-6.25-1.21-52.79-4.21-5.34-19.9-.85S1.83,33.57,1.45,35.05c-.95,3.7-1.45,7.59-1.45,11.59,0,20.71,13.51,38.27,32.19,44.35Z"/>
            <path class="cls-1" d="M25.51,29.68c.09,.43,.07,.33,.19,.98,.06,.31,.13,.68,.75,.57,.94-.17,2.61-.71,3.29-.95,.07-.02,.14-.05,.21-.07v43.03c0,1.42,1.62,6.61,7.06,6.61h20.77c5.11,0,5.43-5.18,5.43-6.61V30.16c.11,.04,.22,.07,.32,.11,.68,.25,2.35,.79,3.29,.95,.62,.11,.69-.26,.75-.57,.12-.65,.1-.55,.18-.98,.37-1.94-2.42-2.18-2.42-2.18l-2.23-.42c-.37-4.14-2.09-13.63-9.82-13.63h-13.43c-7.07,0-9.22,9.5-9.76,13.64l-2.17,.41s-2.79,.24-2.42,2.18Zm31.56,44.76c-3.29,.62-17.57,.62-20.86,0-.73-.14-1.21-.71-1.08-1.22,.4-1.67,.8-3.34,1.2-5h20.63c.4,1.67,.8,3.33,1.2,5,.13,.52-.35,1.09-1.09,1.22Zm3.83-4.98l-3.25-3.92v-9.44h3.25v13.37Zm0-15.04h-3.25v-14.97l3.25-3.92v18.89Zm-7.54-39.29c2.93,0,4.57,1.86,5.48,4.2-.13,.32-.35,.6-.99,.39-1.19-.39-3.24-1.39-4.07-1.84-.94-.5-2.12-.92-2.47-2.76h2.05Zm-13.42,0h2.05c-.35,1.84-1.53,2.26-2.47,2.76-.83,.44-2.88,1.45-4.06,1.84-.64,.21-.87-.07-1-.39,.91-2.35,2.55-4.2,5.48-4.2Zm-4.82,10.95c5.14-.96,17.93-.96,23.06,0,1.14,.21,1.9,1.1,1.69,1.91-.64,2.66-1.27,5.32-1.91,7.98-.2,.81-1.03,1.31-1.86,1.15-3.77-.71-15.15-.71-18.91,0-.83,.15-1.65-.34-1.85-1.15-.64-2.66-1.28-5.32-1.92-7.98-.2-.81,.55-1.7,1.7-1.91Zm-2.72,9.45l3.25,3.93v14.97h-3.25v-18.89Zm0,20.56h3.25v9.45l-3.25,3.92v-13.37Z"/>
          </g>
          <path class="cls-4" d="M103.31,52.74v-11.52c0-9.33,8.87-14.24,17.87-14.24,9.61,0,18.23,4.96,18.23,14.08v10.98c0,9.49-9.06,14.24-17.93,14.24-9.61,0-18.17-4.37-18.17-13.54Zm26.62-.32v-11.73c0-4.27-4.1-6.67-8.69-6.67-4.04,0-8.44,1.87-8.44,6.83v11.62c0,4.32,3.92,6.77,8.69,6.77,3.98,0,8.44-1.97,8.44-6.83Z"/>
          <path class="cls-4" d="M145.34,27.63h18.72c9.06,0,14.99,4.64,14.99,12.1,0,5.97-4.41,12.21-14.69,12.21h-9.55v13.7h-9.49V27.63Zm17.32,17.65c4.34,0,7.1-1.97,7.1-5.44,0-3.89-2.94-5.49-7.16-5.49h-7.77v10.93h7.83Z"/>
          <path class="cls-4" d="M192.21,27.58h9.61l15.66,38.07h-9.91l-2.94-7.62h-16.09l-3,7.62h-9.18l15.85-38.07Zm9.97,23.73l-5.51-14.56h-.12l-5.57,14.56h11.2Z"/>
          <path class="cls-4" d="M221.03,27.63h18.17c9.06,0,15.18,4.53,15.18,12,0,4.53-2.69,9.17-8.44,11.09l10.46,14.93h-10.46l-9.42-13.81h-6v13.81h-9.49V27.63Zm16.95,17.65c4.35,0,7.1-1.97,7.1-5.44,0-3.89-2.94-5.49-7.16-5.49h-7.4v10.93h7.46Z"/>
          <path class="cls-4" d="M260.49,27.63h9.49v17.44l16.4-17.44h10.71l-14.63,15.14,15.85,22.88h-10.83l-11.63-17.06-5.87,5.55v11.52h-9.49V27.63Z"/>
          <path class="cls-4" d="M298.67,52.74v-11.52c0-9.33,8.87-14.24,17.87-14.24,9.61,0,18.23,4.96,18.23,14.08v10.98c0,9.49-9.06,14.24-17.93,14.24-9.61,0-18.17-4.37-18.17-13.54Zm26.62-.32v-11.73c0-4.27-4.1-6.67-8.69-6.67-4.04,0-8.44,1.87-8.44,6.83v11.62c0,4.32,3.92,6.77,8.69,6.77,3.98,0,8.44-1.97,8.44-6.83Z"/>
        </g>
      </g>
    </g>
  </g>
</svg>